<svg width="16" height="16" viewBox="0 0 16 16" fill="none" xmlns="http://www.w3.org/2000/svg">
  <path fill-rule="evenodd" clip-rule="evenodd" d="M1.10881 0.379296C1.61454 -0.126432 2.43449 -0.126432 2.94022 0.379296L7.99947 5.43861L13.0598 0.379296C13.5655 -0.126432 14.3855 -0.126432 14.8912 0.379296L15.6207 1.10881C16.1264 1.61454 16.1264 2.43449 15.6207 2.94022L10.5603 7.99947L15.6207 13.0598C16.0967 13.5358 16.1247 14.2901 15.7047 14.7988L15.6207 14.8912L14.8912 15.6207C14.3855 16.1264 13.5655 16.1264 13.0598 15.6207L7.99947 10.5603L2.94022 15.6207C2.43449 16.1264 1.61454 16.1264 1.10881 15.6207L0.379296 14.8912C-0.126432 14.3855 -0.126432 13.5655 0.379296 13.0598L5.43861 7.99947L0.379296 2.94022C-0.0966833 2.46424 -0.124681 1.70992 0.295301 1.20119L0.379296 1.10881L1.10881 0.379296Z" fill="white"/>
</svg>
