<svg width="14" height="34" viewBox="0 0 14 34" fill="none" xmlns="http://www.w3.org/2000/svg">
  <path d="M12.8671 11.3333V8.5C12.8671 7.56256 12.1045 6.8 11.1671 6.8H9.42182L8.89845 0.519629C8.87383 0.225781 8.6284 0 8.33372 0H6.06706C5.77238 0 5.52695 0.225781 5.50233 0.519629L4.97896 6.8H3.23372C2.29629 6.8 1.53372 7.56256 1.53372 8.5V11.3333C0.908675 11.3333 0.400391 11.8416 0.400391 12.4667V32.3C0.400391 33.2374 1.16296 34 2.10039 34H12.3004C13.2378 34 14.0004 33.2374 14.0004 32.3V12.4667C14.0004 11.8416 13.4921 11.3333 12.8671 11.3333ZM6.58835 1.13333H7.81243L8.28447 6.8H6.11631L6.58835 1.13333ZM2.66706 8.5C2.66706 8.18761 2.92134 7.93333 3.23372 7.93333H5.50039H8.90039H11.1671C11.4794 7.93333 11.7337 8.18761 11.7337 8.5V11.3333H2.66706V8.5ZM12.8671 32.3C12.8671 32.6127 12.6128 32.8667 12.3004 32.8667H2.10039C1.788 32.8667 1.53372 32.6127 1.53372 32.3V12.4667H2.10039H12.3004H12.8671V32.3Z" fill="white"/>
  <rect x="0.764404" y="11.8995" width="12.75" height="21.25" fill="white"/>
  <path d="M10.0042 17.3886C9.92699 17.1573 9.71062 17.0012 9.46658 17.0012C9.22254 17.0012 9.00616 17.1573 8.92897 17.3886L8.47049 18.7643L7.75551 15.19C7.70515 14.9382 7.49155 14.7517 7.23505 14.7357C6.98077 14.7194 6.74365 14.8782 6.6623 15.1219L5.32864 19.1229L4.83806 18.3869C4.70802 18.1916 4.472 18.0964 4.24124 18.1484C4.01214 18.2004 3.83893 18.3886 3.80572 18.621L3.3929 21.5108C3.27918 22.3043 3.33341 23.0979 3.55393 23.8693L3.76616 24.6119C4.20139 26.1365 5.61308 27.2012 7.19853 27.2012H7.48629C8.91624 27.2012 10.2042 26.3518 10.7673 25.0375L10.9234 24.6734C11.4709 23.3967 11.5304 21.9673 11.091 20.6492L10.0042 17.3886Z" fill="#FE6350"/>
</svg>
