<svg width="15" height="34" viewBox="0 0 15 34" fill="none" xmlns="http://www.w3.org/2000/svg">
  <path d="M13.0249 11.3333V8.5C13.0249 7.56257 12.2588 6.8 11.317 6.8H9.56357L9.03776 0.519629C9.01302 0.225781 8.76645 0 8.47039 0H6.19313C5.89708 0 5.65051 0.225781 5.62577 0.519629L5.09996 6.8H3.34657C2.40476 6.8 1.63863 7.56257 1.63863 8.5V11.3333C1.01066 11.3333 0.5 11.8416 0.5 12.4667V32.3C0.5 33.2374 1.26613 34 2.20794 34H12.4556C13.3974 34 14.1635 33.2374 14.1635 32.3V12.4667C14.1635 11.8416 13.6529 11.3333 13.0249 11.3333ZM6.71686 1.13333H7.94667L8.42091 6.8H6.24262L6.71686 1.13333Z" fill="white"/>
  <path d="M13.0255 32.3001C13.0255 32.6128 12.7701 32.8668 12.4562 32.8668H2.20859C1.89475 32.8668 1.63928 32.6128 1.63928 32.3001V12.4668H2.20859H12.4562H13.0255V32.3001Z" fill="white"/>
  <path d="M2.77753 8.50026C2.77753 8.18787 3.033 7.93359 3.34685 7.93359H5.6241H9.03999H11.3172C11.6311 7.93359 11.8866 8.18787 11.8866 8.50026V11.3336H2.77753V8.50026Z" fill="white"/>
  <path d="M13.0255 32.3001C13.0255 32.6128 12.7701 32.8668 12.4562 32.8668H2.20859C1.89475 32.8668 1.63928 32.6128 1.63928 32.3001V12.4668H2.20859H12.4562H13.0255V32.3001Z" fill="#ECBBC6"/>
  <path d="M10.149 17.3875C10.0714 17.1562 9.85402 17.0001 9.60883 17.0001C9.36365 17.0001 9.14627 17.1562 9.06871 17.3875L8.6466 19.0227L7.88978 15.1889C7.83919 14.9371 7.62458 14.7506 7.36689 14.7345C7.11142 14.7182 6.87319 14.877 6.79146 15.1208L5.53363 19.3695L4.95869 18.3858C4.82804 18.1904 4.59092 18.0953 4.35908 18.1473C4.12891 18.1993 3.89012 18.1569 3.66856 18.7632C3.52086 19.1674 3.41788 20.0725 3.35962 21.4785C3.35962 22.3708 3.44701 23.0968 3.66856 23.8682L3.88178 24.6108C4.31905 26.1354 5.73734 27.2001 7.33019 27.2001H7.6193C9.05592 27.2001 10.3499 26.3507 10.9156 25.0364L11.0724 24.6722C11.6226 23.3956 11.6823 21.9662 11.2409 20.648L10.149 17.3875ZM10.0261 24.2262L9.86931 24.5903C9.48291 25.4874 8.59975 26.0668 7.6193 26.0668H7.33019C6.24299 26.0668 5.27504 25.3402 4.97649 24.2998L4.76327 23.5572C4.5862 22.9396 4.54255 22.3049 4.63373 21.6701L4.83777 20.2485L5.14995 20.7144C5.27032 20.8943 5.4827 20.9895 5.69925 20.9618C5.91468 20.933 6.0951 20.7847 6.16376 20.5794L7.1937 17.5037L7.91201 21.078C7.96261 21.3298 8.17721 21.5163 8.43491 21.5323C8.69176 21.5484 8.92861 21.3901 9.01033 21.1461L9.60883 19.3586L10.1606 21.0066C10.5137 22.0614 10.4659 23.2047 10.0261 24.2262Z" fill="#5955E9"/>
</svg>
